<?xml version="1.0" encoding="utf-8"?>
<!-- Generator: Adobe Illustrator 28.1.0, SVG Export Plug-In . SVG Version: 6.00 Build 0)  -->
<svg version="1.1" id="레이어_1" xmlns="http://www.w3.org/2000/svg" xmlns:xlink="http://www.w3.org/1999/xlink" x="0px"
	 y="0px" viewBox="0 0 840 300" style="enable-background:new 0 0 840 300;" xml:space="preserve">
<style type="text/css">
	.st0{fill:#FFFFFF;}
</style>
<path class="st0" d="M64.8,49.1c-16.2,6.8-34,26-39.7,50c-7.1,30.5,22.5,43.4,25,39.2c2.9-5-5.3-6.6-7-22.5
	c-2.2-20.4,7.3-43.3,19.3-53.3c2.2-1.9,2.1,0.7,2.1,5.5L64,169.6c0,21.7-0.9,28.6-2.5,35.4c-1.6,6.9-4.3,11.5-2.3,13.3
	c2.2,2,11.7-2.8,17.2-10.4c6.6-9.2,8.9-20.2,9.3-32.2c0.5-14.5,0.5-37.4,0.5-50.5L86,56.9C85.9,51.7,71.5,46.3,64.8,49.1
	 M640.4,150.8c-0.5,11.3-3,20.1-6.1,26.3c-6,12.1-18.5,15.8-23.8-1.5c-2.9-9.4-3-25.2-0.9-38.4c2.1-13.4,8-23.6,17.8-22.7
	C637,115.4,641.5,127.8,640.4,150.8L640.4,150.8z M478.1,220.8c-0.1,18.8-3.1,35.2-9.4,40c-9,6.8-21.1,1.7-18.6-12
	c2.2-12.1,12.7-24.5,28-39.6L478.1,220.8L478.1,220.8z M475.7,150.6c-0.5,10.3-3.2,20.6-6.1,26.5c-6,12.1-18.6,15.8-23.8-1.5
	c-3.6-11.9-2.7-27.2-0.9-36.9c2.3-12.5,7.8-24.2,17.8-24.2C472.3,114.5,477.1,125.1,475.7,150.6L475.7,150.6z M381.7,150.5
	c-0.6,10.9-2.7,20-6.1,26.6c-6.2,12-18.4,15.8-23.8-1.5c-3.9-12.5-2.6-29.5-0.9-38.7c2.4-13.6,8.4-23.3,17.8-22.4
	C378.3,115.5,382.9,127.8,381.7,150.5L381.7,150.5z M812.4,163.2c-2.4,0-3.4,2.4-4.3,6.5c-3.1,14.2-6.3,17.4-10.5,17.4
	c-4.7,0-8.9-7-9.9-21.1c-0.8-11.1-0.7-31.4,0.4-51.7c0.2-4.2-0.9-8.3-12.1-12.3c-4.8-1.7-11.8-4.3-15.3,4.1
	c-9.8,23.7-13.7,42.5-14.6,50.2c0,0.4-0.5,0.5-0.6-0.4c-0.6-6.1-1.9-17.2-2-40.6c0-4.6-1-8.4-6-11.6c-3.3-2.1-13.2-5.7-16.8-1.4
	c-3.1,3.6-6.7,13.1-10.4,24.4l-5.1,15.4l0.1-34.2c0-3.6-2.4-4.7-3.2-4.9c-3.3-1-9.8-2.6-12.6-2.6c-3.4,0-4.2,1.9-4.2,4.7l-0.5,55.3
	l0,3.2c-1.9,10.4-8,24.5-14.7,24.5c-6.7,0-9.8-5.9-9.8-32.8c0-15.7,0.5-22.6,0.7-33.9l0.4-12.7c0-3.5-6.1-5.3-8.9-5.9
	c-2.8-0.7-5.3-0.9-7.2-0.8c-2.7,0.2-4.6,1.9-4.6,4.4l0,3.8c-3.5-5.5-9.1-9.3-12.9-10.4c-10.1-3-20.6-0.3-28.5,10.8
	c-6.3,8.8-10.1,18.8-11.6,33.2c-1.1,10.5-0.7,21.1,1.2,30.2c-2.3,10.2-6.7,14.3-11.5,14.3c-6.9,0-12-11.3-11.4-30.9
	c0.4-12.9,3-21.9,5.8-35c1.2-5.6,0.2-8.5-2.2-11.3c-2.2-2.6-7-3.9-13.9-2.3c-4.9,1.2-11.9,2.4-18.3,3.3c0,0,0.4-1.5,0.7-4.3
	c1.7-14.3-13.8-13.1-18.8-8.6c-3,2.7-5,5.9-5.7,11.7c-1.2,9.2,6.3,13.5,6.3,13.5c-2.5,11.2-8.5,25.9-14.6,36.4
	c-3.3,5.7-5.9,9.9-9.1,14.3l0-5l0.4-48.8l0.4-12.6c0-2.6-1.5-3.5-4.6-4.8c-2.8-1.1-6-1.8-9.4-2.1c-4.3-0.3-6.8,1.9-6.8,4.6
	c0,0.5,0,3.6,0,3.6c-3.5-5.5-9.1-9.3-12.9-10.4c-10.1-3-20.6-0.3-28.5,10.8c-6.3,8.8-10.4,21.2-11.6,33.1
	c-1.1,11.1-0.9,20.5,0.6,28.4c-1.6,7.9-6.2,16.2-11.4,16.2c-6.7,0-10.5-5.9-10.5-32.8c0-15.7,0.5-22.6,0.7-33.9l0.4-12.7
	c0-3.5-6.1-5.3-8.9-5.9c-2.9-0.7-5.5-0.9-7.4-0.8c-2.6,0.2-4.4,2.5-4.4,4.2v4c-3.5-5.5-9.1-9.3-12.9-10.4
	c-10.1-3-20.6-0.3-28.5,10.8c-5.2,7.2-9.4,15.2-11.6,32.9c-0.6,5.1-0.9,9.9-0.9,14.4c-2.1,12.7-11.3,27.4-18.8,27.4
	c-4.4,0-8.6-8.5-8.6-26.7c0-24.2,1.5-58.7,1.8-62l11.3-0.2c4.7-0.1,9,0.1,15.3-0.3c3.2-0.2,6.2-11.5,2.9-12.9
	c-1.5-0.6-11.9-1.2-16.1-1.3c-3.5-0.1-13.2-0.8-13.2-0.8l1.1-25.3c0.2-2-2.4-3-3.9-3.7c-3.6-1.5-6.9-2.3-10.7-3.1
	c-5.3-1.1-7.7,0-8.2,4.5c-0.7,6.8-1.1,26.8-1.1,26.8c-3.9,0-17.3-0.8-21.2-0.8c-3.6,0-7.6,15.6-2.5,15.8l22.5,0.6l-0.3,49.2
	c-3.7,19.1-16.6,29.5-16.6,29.5c2.8-12.7-2.9-22.2-13.1-30.2c-3.8-3-11.2-8.6-19.5-14.7c0,0,4.8-4.7,9.1-14.3
	c3-6.8,3.2-14.5-4.3-16.2c-12.3-2.8-22.4,6.2-25.4,15.8c-2.3,7.5-1.1,13,3.5,18.7c0.3,0.4,0.7,0.9,1.1,1.3
	c-2.8,5.3-6.6,12.5-9.8,18.1c-8.9,15.5-15.7,27.7-20.8,27.7c-4.1,0-4-12.4-4-24.1c0-10,0.7-25.1,1.3-40.8c0.2-5.2-2.4-8.1-6.7-10.8
	c-2.6-1.6-8.2-4.8-11.5-4.8c-4.9,0-18.9,0.7-32.2,39.1c-1.7,4.8-5,13.7-5,13.7l0.3-46.2c0-1.1-0.6-2.1-1.9-2.8
	c-2.2-1.2-8.2-3.7-13.5-3.7c-2.5,0-3.8,1.2-3.8,3.5l-0.5,72.2c0,5.5,0.1,11.9,0.7,14.7s1.4,5.1,2.5,6.4s2.3,2.4,4.4,2.8
	c1.9,0.4,12.4,1.7,13-2.3c0.7-4.8,0.7-10,6.2-29.5c8.6-30.3,19.8-45.1,25.1-50.3c0.9-0.9,2-1,1.9,0.5l-1.6,37.3
	c-1.4,37.7,5.4,44.7,15.2,44.7c7.5,0,18.1-7.5,29.4-26.3l18.9-31.6l11.1,10.3c9,8.5,11.9,16.6,9.9,24.2c-1.5,5.9-7.1,11.9-17.1,6
	c-2.9-1.7-4.2-3-7.1-5c-1.6-1-4-1.3-5.4-0.3c-3.7,2.8-5.9,6.4-7.1,10.9c-1.2,4.3,3.1,6.6,7.6,8.6c3.9,1.7,12.2,3.3,17.5,3.5
	c20.6,0.7,37.2-10,48.7-37.5c2.1,23.7,10.8,37.2,26.1,37.2c10.2,0,20.4-13.2,24.9-26.1c1.3,5.3,3.2,9.9,5.6,13.8
	c11.7,18.6,34.5,14.6,46-1.2c3.5-4.9,4.1-6.6,4.1-6.6c1.7,14.9,13.7,20.1,20.6,20.1c7.7,0,15.7-3.6,21.2-16.2
	c0.7,1.4,1.4,2.7,2.1,3.9c11.7,18.6,34.5,14.6,46-1.2c0.5-0.7,1-1.3,1.4-2l0.3,9.8l-10.5,9.7c-17.6,16.2-31,28.5-32,42.8
	c-1.3,18.2,13.5,25,24.7,25.9c11.9,0.9,22-5.6,28.3-14.8c5.5-8.1,9.1-25.5,8.8-42.7l-0.4-25c6.2-7.2,13.2-16.3,19.6-26.9
	c7-11.6,14.5-27.2,18.4-39.3c0,0,6.5,0.1,13.5-0.4c2.2-0.1,2.9,0.3,2.5,1.9c-0.5,2-8.8,34-1.2,55.3c5.2,14.6,16.9,19.3,23.8,19.3
	c8.1,0,15.9-6.1,20-15.2c0.5,1,1,2,1.6,2.9c11.7,18.6,34.4,14.6,46-1.2c2.6-3.6,4.1-6.6,4.1-6.6c2.5,15.4,14.5,20.2,21.4,20.2
	c7.2,0,14-2.9,19.5-16c0.2,5.7,0.6,10.4,1.2,11.9c0.3,0.9,2.4,2,3.9,2.6c6.6,2.4,13.2,1.3,15.7,0.8c1.7-0.3,3-1.7,3.2-5.3
	c0.5-9.3,0.2-25,3-36.6c4.7-19.5,9.2-27.1,11.3-30.8c1.2-2.1,2.5-2.4,2.5-0.2c0.1,4.5,0.3,17.7,2.2,35.5c1.3,13.1,3.2,20.8,4.5,23.2
	c4,7,8.8,7.3,12.8,7.3c2.5,0,7.8-0.7,7.3-5.1c-0.2-2.2,0.2-15.6,4.8-34.8c3.1-12.6,8.1-23.9,10-28.1c0.7-1.5,1-0.3,1-0.1
	c-0.4,8.7-1.3,36.9,2.3,52.4c4.8,21,18.6,23.3,23.4,23.3c10.3,0,18.7-7.8,21.5-28.4C816.5,167,815.4,163.2,812.4,163.2"/>
</svg>
